<svg xmlns="http://www.w3.org/2000/svg" viewBox="0 0 250.66 85.74"><defs><style>.cls-1{fill:#fff;}</style></defs><title>logo</title><g id="Layer_2" data-name="Layer 2"><path class="cls-1" d="M30.62,30.41A17.27,17.27,0,1,0,47.9,47.68,17.29,17.29,0,0,0,30.62,30.41m0,47.89A30.62,30.62,0,1,1,61.24,47.68,30.65,30.65,0,0,1,30.62,78.3"/><path class="cls-1" d="M178.6,30.41a17.27,17.27,0,1,0,17.27,17.27A17.29,17.29,0,0,0,178.6,30.41m0,47.89a30.62,30.62,0,1,1,30.62-30.62A30.65,30.65,0,0,1,178.6,78.3"/><polygon class="cls-1" points="-0.1 77.79 13.45 77.79 13.45 3.16 -0.1 0.33 -0.1 77.79"/><polygon class="cls-1" points="68.19 20.19 81.74 16.75 81.74 77.79 68.19 77.79 68.19 20.19"/><polygon class="cls-1" points="209.32 77.79 195.77 77.79 195.77 20.19 209.32 16.76 209.32 77.79"/><polygon class="cls-1" points="230.12 0 216.56 3.42 216.56 77.79 230.12 77.79 230.12 0"/><polygon class="cls-1" points="237.11 3.15 237.11 77.62 250.66 77.62 250.66 0.16 237.11 3.15"/><polygon class="cls-1" points="104.99 63.93 121.75 16.75 107.72 16.75 88.99 63.93 88.97 63.93 88.97 77.49 147.25 77.49 147.25 63.93 104.99 63.93"/><rect class="cls-1" x="121.75" y="48.29" width="14.04" height="37.45"/></g></svg>