<svg xmlns="http://www.w3.org/2000/svg" viewBox="0 0 255.73 87.1"><title>logo</title><g id="Layer_2" data-name="Layer 2"><path d="M31.33,30.68A17.61,17.61,0,1,0,49,48.29,17.63,17.63,0,0,0,31.33,30.68m0,48.83A31.23,31.23,0,1,1,62.56,48.29,31.25,31.25,0,0,1,31.33,79.51"/><path d="M182.24,30.68a17.61,17.61,0,1,0,17.61,17.61,17.63,17.63,0,0,0-17.61-17.61m0,48.83a31.23,31.23,0,1,1,31.23-31.22,31.25,31.25,0,0,1-31.23,31.22"/><polygon points="0 78.99 13.82 78.99 13.82 2.89 0 0 0 78.99"/><polygon points="69.64 20.25 83.46 16.75 83.46 78.99 69.64 78.99 69.64 20.25"/><polygon points="213.57 78.99 199.75 78.99 199.75 20.25 213.57 16.75 213.57 78.99"/><polygon points="234.78 -0.34 220.95 3.15 220.95 78.99 234.78 78.99 234.78 -0.34"/><polygon points="241.91 2.88 241.91 78.82 255.73 78.82 255.73 -0.17 241.91 2.88"/><polygon points="107.17 64.86 124.27 16.75 109.96 16.75 90.86 64.86 90.83 64.86 90.83 78.69 150.27 78.69 150.27 64.86 107.17 64.86"/><rect x="124.27" y="48.91" width="14.31" height="38.19"/></g></svg>